<?xml version="1.0" encoding="UTF-8"?>
<svg width="40px" height="40px" viewBox="0 0 40 40" version="1.1" xmlns="http://www.w3.org/2000/svg" xmlns:xlink="http://www.w3.org/1999/xlink">
    <!-- Generator: Sketch 52.2 (67145) - http://www.bohemiancoding.com/sketch -->
    <title>bus (1)</title>
    <desc>Created with Sketch.</desc>
    <g id="Page-1" stroke="none" stroke-width="1" fill="none" fill-rule="evenodd">
        <g id="snow_yado_list_after" transform="translate(-206.000000, -617.000000)">
            <g id="Group-4" transform="translate(190.000000, 601.000000)">
                <g id="Group-6" transform="translate(15.000000, 16.000000)">
                    <g id="bus-(1)" transform="translate(1.000000, 0.000000)">
                        <g id="Group-13">
                            <circle id="Oval" fill="#F9F9F9" opacity="0.8" cx="19.9996094" cy="19.9996094" r="19.9996094"></circle>
                            <g id="Group-12" transform="translate(5.000000, 20.000000)">
                                <path d="M1.6083252,1.06139974 L2.92265625,0.83968099 C2.92265625,0.613880208 3.11162109,0.425032552 3.34672852,0.425032552 L18.2585449,0.425032552 C18.3929443,0.425032552 18.510498,0.486621094 18.590332,0.581080729 L27.7070801,0.581080729 C27.9673828,0.581080729 28.1816162,0.790481771 28.1816162,1.04507161 L28.1816162,1.06147135 L28.3999512,1.06147135 C28.9164551,1.06147135 29.3363525,1.39820313 29.3363525,1.80876953 L29.3363525,8.40304036 C29.3363525,8.81360677 28.9164551,9.15033854 28.3999512,9.15033854 L1.61674805,9.15033854 C1.10024414,9.15033854 0.646728516,8.81367839 0.68034668,8.40304036 L1.24306641,1.83340495 C1.27661133,1.42283854 1.10024414,1.05738932 1.61682129,1.05738932 L1.6083252,1.06139974 Z" id="Path" fill="#4A90E2"></path>
                                <rect id="Rectangle" fill="#C1E9FF" x="3.12443848" y="2.36736328" width="1.92751465" height="6.17145833"></rect>
                                <rect id="Rectangle" fill="#FFFFFF" x="3.38891602" y="2.61314453" width="1.39438477" height="2.37359375"></rect>
                                <rect id="Rectangle" fill="#C1E9FF" x="24.2048584" y="2.36736328" width="1.92751465" height="6.17145833"></rect>
                                <rect id="Rectangle" fill="#FFFFFF" x="24.4694092" y="2.61314453" width="1.39438477" height="2.37359375"></rect>
                                <rect id="Rectangle" fill="#C1E9FF" x="26.2667725" y="2.36736328" width="1.92751465" height="6.17145833"></rect>
                                <rect id="Rectangle" fill="#FFFFFF" x="26.53125" y="2.61314453" width="1.39438477" height="2.37359375"></rect>
                                <path d="M29.3280762,7.98416667 L29.3280762,8.40705078 C29.3280762,8.81761719 28.9081787,9.15434896 28.3916748,9.15434896 L1.6083252,9.15434896 C1.09182129,9.15434896 0.671923828,8.8176888 0.671923828,8.40705078 L0.671923828,7.98416667 L29.3280762,7.98416667 Z" id="Path" fill="#E84F4F"></path>
                                <path d="M7.21442871,7.18344401 C6.25700684,7.18344401 5.48005371,7.9430599 5.48005371,8.87920573 C5.48005371,9.81527995 6.25693359,10.5750391 7.21442871,10.5750391 C8.17192383,10.5750391 8.94880371,9.81542318 8.94880371,8.87920573 C8.94873047,7.9430599 8.17185059,7.18344401 7.21442871,7.18344401 Z" id="Path" fill="#333333"></path>
                                <path d="M7.21442871,7.84860026 C6.63076172,7.84860026 6.16040039,8.31259115 6.16040039,8.87920573 C6.16040039,9.44990234 6.63493652,9.9098112 7.21442871,9.9098112 C7.7980957,9.9098112 8.26845703,9.44582031 8.26845703,8.87920573 C8.26853027,8.30850911 7.7939209,7.84860026 7.21442871,7.84860026 Z" id="Path" fill="#E6E6E6"></path>
                                <path d="M7.21442871,8.476875 C6.9876709,8.476875 6.80288086,8.65755859 6.80288086,8.87920573 C6.80288086,9.10092448 6.9876709,9.28153646 7.21442871,9.28153646 C7.44118652,9.28153646 7.62597656,9.10085286 7.62597656,8.87920573 C7.62597656,8.65755859 7.44118652,8.476875 7.21442871,8.476875 Z" id="Path" fill="#B3B3B3"></path>
                                <path d="M5.7782959,1.69783854 L8.39868164,1.69783854 C8.47844238,1.69783854 8.54150391,1.76350911 8.54150391,1.84156901 L8.54150391,3.86582682 C8.54150391,3.9438151 8.47851563,4.00955729 8.39868164,4.00955729 L5.7782959,4.00955729 C5.69853516,4.00955729 5.63547363,3.94388672 5.63547363,3.86582682 L5.63547363,1.84156901 C5.63547363,1.76350911 5.69846191,1.69783854 5.7782959,1.69783854 Z M20.883252,1.69783854 L23.5036377,1.69783854 C23.5833984,1.69783854 23.64646,1.76350911 23.64646,1.84156901 L23.64646,3.86582682 C23.64646,3.9438151 23.5834717,4.00955729 23.5036377,4.00955729 L20.883252,4.00955729 C20.8034912,4.00955729 20.7404297,3.94388672 20.7404297,3.86582682 L20.7404297,1.84156901 C20.7405029,1.76350911 20.803418,1.69783854 20.883252,1.69783854 Z M17.1080566,1.69783854 L19.7284424,1.69783854 C19.8082031,1.69783854 19.8712646,1.76350911 19.8712646,1.84156901 L19.8712646,3.86582682 C19.8712646,3.9438151 19.8082764,4.00955729 19.7284424,4.00955729 L17.1080566,4.00955729 C17.0282959,4.00955729 16.9652344,3.94388672 16.9652344,3.86582682 L16.9652344,1.84156901 C16.9653076,1.76350911 17.0282959,1.69783854 17.1080566,1.69783854 Z M13.3328613,1.69783854 L15.9532471,1.69783854 C16.0330078,1.69783854 16.0960693,1.76350911 16.0960693,1.84156901 L16.0960693,3.86582682 C16.0960693,3.9438151 16.0330811,4.00955729 15.9532471,4.00955729 L13.3328613,4.00955729 C13.2531006,4.00955729 13.1900391,3.94388672 13.1900391,3.86582682 L13.1900391,1.84156901 C13.1900391,1.76350911 13.2531006,1.69783854 13.3328613,1.69783854 Z M9.55766602,1.69783854 L12.1780518,1.69783854 C12.2578125,1.69783854 12.320874,1.76350911 12.320874,1.84156901 L12.320874,3.86582682 C12.320874,3.9438151 12.2578857,4.00955729 12.1780518,4.00955729 L9.55766602,4.00955729 C9.47790527,4.00955729 9.41484375,3.94388672 9.41484375,3.86582682 L9.41484375,1.84156901 C9.41491699,1.76350911 9.47783203,1.69783854 9.55766602,1.69783854 Z" id="Shape" fill="#C1E9FF" fill-rule="nonzero"></path>
                                <path d="M1.209375,2.14535807 L2.11640625,2.12895833 C2.29694824,2.1248763 2.44394531,2.2726888 2.44394531,2.44921875 L2.44394531,6.03789714 C2.44394531,6.21442708 2.29694824,6.35815755 2.11640625,6.35815755 L0.848291016,6.35815755 C0.600585938,6.37871094 0.915454102,1.87028646 1.20944824,2.14127604 L1.209375,2.14535807 Z" id="Path" fill="#FFFFFF"></path>
                                <path d="M22.3278076,7.18344401 C21.3703857,7.18344401 20.5934326,7.9430599 20.5934326,8.87920573 C20.5934326,9.81527995 21.3703125,10.5750391 22.3278076,10.5750391 C23.2853027,10.5750391 24.0621094,9.81542318 24.0621094,8.87920573 C24.0620361,7.9430599 23.2852295,7.18344401 22.3278076,7.18344401 Z" id="Path" fill="#333333"></path>
                                <path d="M22.3278076,7.84860026 C21.7441406,7.84860026 21.2737793,8.31259115 21.2737793,8.87920573 C21.2737793,9.44990234 21.7483154,9.9098112 22.3278076,9.9098112 C22.9114746,9.9098112 23.3818359,9.44582031 23.3818359,8.87920573 C23.3818359,8.30850911 22.9072998,7.84860026 22.3278076,7.84860026 Z" id="Path" fill="#E6E6E6"></path>
                                <path d="M22.3278076,8.476875 C22.1010498,8.476875 21.9162598,8.65755859 21.9162598,8.87920573 C21.9162598,9.10092448 22.1010498,9.28153646 22.3278076,9.28153646 C22.5545654,9.28153646 22.7392822,9.10085286 22.7392822,8.87920573 C22.7393555,8.65755859 22.5545654,8.476875 22.3278076,8.476875 Z" id="Path" fill="#B3B3B3"></path>
                                <path d="M1.16740723,6.91245443 L1.82255859,6.91245443 C1.99650879,6.91245443 2.1375,7.0503125 2.1375,7.22039714 L2.1375,7.44211589 C2.1375,7.61220052 1.99650879,7.75005859 1.82255859,7.75005859 L1.16740723,7.75005859 C0.993457031,7.75005859 0.85246582,7.61220052 0.85246582,7.44211589 L0.85246582,7.22039714 C0.85246582,7.0503125 0.993457031,6.91245443 1.16740723,6.91245443 Z" id="Path" fill="#FFFFFF"></path>
                                <path d="M1.05402832,8.15661458 L1.21362305,8.15661458 C1.33190918,8.15661458 1.4277832,8.25042969 1.4277832,8.36601563 L1.4277832,8.5220638 C1.4277832,8.63772135 1.33183594,8.73146484 1.21362305,8.73146484 L1.05402832,8.73146484 C0.935742187,8.73146484 0.839868164,8.63764974 0.839868164,8.5220638 L0.839868164,8.36601563 C0.839868164,8.25028646 0.935742187,8.15661458 1.05402832,8.15661458 Z" id="Path" fill="#666666"></path>
                            </g>
                        </g>
                    </g>
                </g>
            </g>
        </g>
    </g>
</svg>