<?xml version="1.0" encoding="UTF-8"?>
<svg width="20px" height="20px" viewBox="0 0 20 20" version="1.1" xmlns="http://www.w3.org/2000/svg" xmlns:xlink="http://www.w3.org/1999/xlink">
    <!-- Generator: Sketch 52.2 (67145) - http://www.bohemiancoding.com/sketch -->
    <title>Rectangle</title>
    <desc>Created with Sketch.</desc>
    <g id="Page-1" stroke="none" stroke-width="1" fill="none" fill-rule="evenodd">
        <g id="snow_yado_list_after" transform="translate(-724.000000, -479.000000)">
            <rect id="Rectangle" opacity="0.1" fill-rule="nonzero" x="150" y="-1" width="1140" height="1057"></rect>
            <g id="Group" transform="translate(280.000000, 252.000000)">
                <g id="Group-15" transform="translate(444.000000, 227.000000)">
                    <rect id="Rectangle" fill-rule="nonzero" x="0" y="0" width="20" height="20"></rect>
                    <g id="event" transform="translate(1.500000, 2.000000)" fill="#1A87D8">
                        <path d="M15.0807549,1.73559147 C15.0468431,1.73426315 15.012893,1.73404177 14.9789429,1.73496421 L13.6991349,1.73496421 L13.6991349,0.674710353 C13.6991732,0.250608811 13.2792176,0 12.8392824,0 L11.6594875,0 C11.2195523,0 10.8996099,0.250608811 10.8996099,0.674710353 L10.8996099,1.73492731 L6.10035853,1.73492731 L6.10035853,0.674710353 C6.10035853,0.250608811 5.7804161,0 5.3404809,0 L4.16064772,0 C3.72075079,0 3.30079525,0.250608811 3.30079525,0.674710353 L3.30079525,1.73492731 L2.02102551,1.73492731 C1.20407955,1.71297321 0.523355039,2.33362851 0.500581292,3.12113497 C0.499624412,3.15382629 0.499854063,3.1865914 0.501231971,3.21928271 L0.501231971,14.3614493 C0.501231971,15.2096524 1.14111684,16 2.02098724,16 L14.9789812,16 C15.8588516,16 16.4987364,15.2096524 16.4987364,14.3614493 L16.4987364,3.21928271 C16.532189,2.43210833 15.8973181,1.76784001 15.0807549,1.73559147 Z M11.6594875,0.771087005 L12.8992979,0.771087005 L12.8992979,2.89155782 L11.6594875,2.89155782 L11.6594875,0.771087005 Z M4.16068599,0.771087005 L5.30052158,0.771087005 L5.30052158,2.89155782 L4.16068599,2.89155782 L4.16068599,0.771087005 Z M15.6988612,14.3614493 C15.6988612,14.7855509 15.4189164,15.228913 14.9789812,15.228913 L2.02102551,15.228913 C1.58109031,15.228913 1.30114547,14.7855509 1.30114547,14.3614493 L1.30114547,6.16869604 L15.6988612,6.16869604 L15.6988612,14.3614493 Z M15.6988612,3.21928271 L15.6988612,5.39760903 L1.30110719,5.39760903 L1.30110719,3.21928271 C1.26723364,2.85879271 1.54292994,2.54007084 1.91687868,2.50741643 C1.95147947,2.50439082 1.9863099,2.50394805 2.02098724,2.50605121 L3.30079525,2.50605121 L3.30079525,2.93015276 C3.30079525,3.3542543 3.72071252,3.66268172 4.16064772,3.66268172 L5.3404809,3.66268172 C5.74895388,3.67349273 6.0891439,3.36299904 6.10035853,2.96922736 C6.10074128,2.95620249 6.10074128,2.94317763 6.10035853,2.93015276 L6.10035853,2.50601432 L10.8996099,2.50601432 L10.8996099,2.93011586 C10.8883952,3.32388754 11.2104811,3.65183381 11.6189541,3.66264482 C11.6324652,3.6630138 11.6459764,3.6630138 11.6594875,3.66264482 L12.8393207,3.66264482 C13.2792559,3.66264482 13.6991732,3.3542174 13.6991732,2.93011586 L13.6991732,2.50601432 L14.9789812,2.50601432 C15.3537337,2.48324847 15.6766616,2.75765626 15.7002774,3.11892111 C15.7024591,3.15235038 15.7019998,3.18592724 15.6988612,3.21928271 Z" id="Shape"></path>
                    </g>
                </g>
            </g>
        </g>
    </g>
</svg>