<?xml version="1.0" encoding="UTF-8"?>
<svg width="21px" height="14px" viewBox="0 0 21 14" version="1.1" xmlns="http://www.w3.org/2000/svg" xmlns:xlink="http://www.w3.org/1999/xlink">
    <!-- Generator: Sketch 52.2 (67145) - http://www.bohemiancoding.com/sketch -->
    <title>quote</title>
    <desc>Created with Sketch.</desc>
    <g id="Page-1" stroke="none" stroke-width="1" fill="none" fill-rule="evenodd">
        <g id="snow_yado_list_after" transform="translate(-190.000000, -527.000000)" fill="#B5B5C6">
            <g id="Group-2" transform="translate(190.000000, 527.000000)">
                <g id="quote">
                    <path d="M20.5,4.501 C20.5,9.4645 16.4775,13.5015 11.5315,13.5015 C11.178,13.5015 10.8895,13.216 10.8895,12.8615 C10.8895,12.503 11.178,12.2175 11.5315,12.2175 C14.6155,12.2175 17.2805,10.3835 18.505,7.7465 C17.873,8.135 17.1305,8.3595 16.3365,8.3595 C14.0405,8.3595 12.1725,6.485 12.1725,4.181 C12.1725,1.8765 14.0405,0.002 16.3365,0.002 C18.6325,0.002 20.5,1.8765 20.5,4.181 C20.5,4.2625 20.497,4.3435 20.4925,4.4245 C20.4955,4.4495 20.5,4.475 20.5,4.501 L20.5,4.501 Z M0.6415,13.5015 C0.2845,13.5015 0,13.216 0,12.8615 C0,12.503 0.2845,12.2175 0.6415,12.2175 C3.7245,12.2175 6.3875,10.3845 7.611,7.749 C6.98,8.136 6.239,8.3595 5.4465,8.3595 C3.1505,8.3595 1.2795,6.485 1.2795,4.181 C1.2795,1.8765 3.1505,0.002 5.4465,0.002 C7.743,0.002 9.6105,1.8765 9.6105,4.181 C9.6105,4.2625 9.6075,4.344 9.603,4.425 C9.606,4.4505 9.6105,4.475 9.6105,4.501 C9.6105,9.4645 5.5875,13.5015 0.6415,13.5015 L0.6415,13.5015 Z" id="Shape"></path>
                </g>
            </g>
        </g>
    </g>
</svg>