<?xml version="1.0" encoding="UTF-8"?>
<svg width="131px" height="49px" viewBox="0 0 131 49" version="1.1" xmlns="http://www.w3.org/2000/svg" xmlns:xlink="http://www.w3.org/1999/xlink">
    <!-- Generator: Sketch 52.2 (67145) - http://www.bohemiancoding.com/sketch -->
    <title>pick_up_service-e5ad732d27f07d452288169a302fd3e6aa6394c319b9e0e2a20993aff22abda6</title>
    <desc>Created with Sketch.</desc>
    <g id="Page-1" stroke="none" stroke-width="1" fill="none" fill-rule="evenodd">
        <g id="snow_yado_list_after" transform="translate(-250.000000, -1809.000000)">
            <g id="pick_up_service-e5ad732d27f07d452288169a302fd3e6aa6394c319b9e0e2a20993aff22abda6" transform="translate(250.000000, 1809.000000)">
                <g id="Group-4">
                    <path d="M12.7659574,27.3207721 C16.85385,22.9891001 20.2369335,17.7910937 22.3513607,12.0155311 C24.4657879,6.23996846 26.6509714,2.18566176 29.8930931,2.18566176 C32.9234967,2.18566176 35.1086801,6.23996846 37.2231073,12.0155311 C38.0028193,14.1453161 38.9550464,16.1965637 40.0515145,18.154793" id="Path-15" stroke="#484442" stroke-width="0.9" stroke-linecap="round"></path>
                    <path d="M0,28.4136029 C5.95734338,23.7178561 8.43984683,19.6511909 10.0001034,16.4495453 C11.56036,13.2478997 14.8936355,13.6747858 15.9574468,16.4607927" id="Path-16" stroke="#484442" stroke-width="0.9" stroke-linecap="round"></path>
                    <g id="Path-17"></g>
                    <path d="M34.0425532,2.78810454 C36.9903023,-0.159210798 44.7105977,0.6828793 44.5702287,5.73541989 C45.693592,5.73541989 46.7463595,6.8822003 46.535806,7.58394205 C47.4188693,7.1053138 48.9922636,7.26815827 49.6941086,8.2856838 C50.3959537,9.30320934 49.8695699,10.9283088 48.3255108,10.9283088 C47.9563492,10.9283088 45.3241562,10.9283088 44.9215624,10.9283088 C42.9447676,10.9283088 40.3945936,10.9283088 37.2710403,10.9283088" id="Path-18" stroke="#484442" stroke-width="0.9" stroke-linecap="round"></path>
                    <path d="M21.8747403,13.660386 C22.2127935,13.3241304 23.2530184,12.5955765 24.995415,11.4747243 L26.5166545,15.8460478 L29.3337648,11.8670225 L31.9255062,15.8460478 L34.3747403,11.4747243 L37.6992084,13.660386" id="Path-20" stroke="#484442" stroke-width="0.9" stroke-linecap="round" stroke-linejoin="round"></path>
                    <ellipse id="Oval-9" stroke="#484442" stroke-width="0.9" cx="15.9574468" cy="5.46415441" rx="3.19148936" ry="3.27849265"></ellipse>
                    <path d="M15.9574468,0 L15.9574468,1.16113281" id="Path-21" stroke="#484442" stroke-width="0.9"></path>
                    <path d="M19.7186531,1.60041377 L18.9193968,2.42145866" id="Path-21" stroke="#484442" stroke-width="0.9"></path>
                    <path d="M21.2765957,5.46415441 L20.1462766,5.46415441" id="Path-21" stroke="#484442" stroke-width="0.9"></path>
                    <path d="M19.7186531,9.32789505 L18.9193968,8.50685016" id="Path-21" stroke="#484442" stroke-width="0.9"></path>
                    <path d="M15.9574468,10.9283088 L15.9574468,9.76717601" id="Path-21" stroke="#484442" stroke-width="0.9"></path>
                    <path d="M12.9954969,1.60041377 L12.1962406,2.42145866" id="Path-21" stroke="#484442" stroke-width="0.9" transform="translate(12.595869, 2.010936) scale(-1, 1) translate(-12.595869, -2.010936) "></path>
                    <path d="M11.7686161,5.46415441 L10.638297,5.46415441" id="Path-21" stroke="#484442" stroke-width="0.9" transform="translate(11.203457, 5.464154) scale(-1, 1) translate(-11.203457, -5.464154) "></path>
                    <path d="M12.9954969,9.32789505 L12.1962406,8.50685016" id="Path-21" stroke="#484442" stroke-width="0.9" transform="translate(12.595869, 8.917373) scale(-1, 1) translate(-12.595869, -8.917373) "></path>
                </g>
                <g id="Group-3" transform="translate(91.000000, 9.000000)">
                    <g id="Group-2" transform="translate(5.454545, 0.909091)" fill="#FFEEA6">
                        <rect id="Rectangle" x="0" y="29.9698153" width="34.5454545" height="9.09090909"></rect>
                        <polygon id="Path-55" points="0.416370739 22.169588 0.416370739 6.05885349 11.3014915 0 22.6526989 6.05885349 22.6526989 22.2753906"></polygon>
                    </g>
                    <rect id="Rectangle-16" stroke="#484442" stroke-width="0.9" x="0.45" y="22.2681818" width="39.1" height="8.19090909"></rect>
                    <rect id="Rectangle" stroke="#484442" stroke-width="0.9" x="3.17727273" y="30.45" width="33.6454545" height="8.19090909"></rect>
                    <rect id="Rectangle-3" stroke="#484442" stroke-width="0.9" x="3.17727273" y="30.45" width="22.1459872" height="8.19090909"></rect>
                    <g id="Group" transform="translate(6.363636, 7.272727)" stroke="#484442" stroke-width="0.9">
                        <rect id="Rectangle-4" x="0.45" y="0.45" width="2.73636364" height="1.82727273"></rect>
                        <rect id="Rectangle-4-Copy-3" x="0.45" y="4.99545455" width="2.73636364" height="1.82727273"></rect>
                        <rect id="Rectangle-4-Copy" x="6.81363636" y="0.45" width="2.73636364" height="1.82727273"></rect>
                        <rect id="Rectangle-4-Copy-4" x="6.81363636" y="4.99545455" width="2.73636364" height="1.82727273"></rect>
                        <rect id="Rectangle-4-Copy-2" x="13.1772727" y="0.45" width="2.73636364" height="1.82727273"></rect>
                        <rect id="Rectangle-4-Copy-5" x="13.1772727" y="4.99545455" width="2.73636364" height="1.82727273"></rect>
                        <rect id="Rectangle-4-Copy-8" x="0.45" y="9.54090909" width="2.73636364" height="1.82727273"></rect>
                        <rect id="Rectangle-4-Copy-7" x="6.81363636" y="9.54090909" width="2.73636364" height="1.82727273"></rect>
                        <rect id="Rectangle-4-Copy-6" x="13.1772727" y="9.54090909" width="2.73636364" height="1.82727273"></rect>
                    </g>
                    <rect id="Rectangle-2" stroke="#484442" stroke-width="0.9" x="9.54090909" y="33.1772727" width="10.0090909" height="5.46363636"></rect>
                    <path d="M8.98703835,24.5987216 L9.51970881,24.5987216 L9.51970881,28.3194247 L8.98703835,28.3194247 L8.98703835,26.7001065 L6.89630682,26.7001065 L6.89630682,28.3194247 L6.36363636,28.3194247 L6.36363636,24.5987216 L6.89630682,24.5987216 L6.89630682,26.2073864 L8.98703835,26.2073864 L8.98703835,24.5987216 Z M14.8943537,24.5454545 C15.4696407,24.5454545 15.9485954,24.7274485 16.3312322,25.0914418 C16.7138691,25.4554351 16.9051847,25.9117515 16.9051847,26.4604048 C16.9051847,27.0090581 16.7120936,27.4631552 16.3259055,27.8227095 C15.9397175,28.1822639 15.4527728,28.3620384 14.8650568,28.3620384 C14.3039745,28.3620384 13.8365608,28.1822639 13.4628018,27.8227095 C13.0890429,27.4631552 12.9021662,27.0126092 12.9021662,26.4710582 C12.9021662,25.9153026 13.0903745,25.4554351 13.4667969,25.0914418 C13.8432192,24.7274485 14.3190667,24.5454545 14.8943537,24.5454545 Z M14.9156605,25.0514915 C14.489522,25.0514915 14.1392947,25.1846578 13.864968,25.4509943 C13.5906414,25.7173309 13.4534801,26.0573488 13.4534801,26.4710582 C13.4534801,26.8723387 13.5910853,27.2061421 13.8662997,27.4724787 C14.1415142,27.7388153 14.4859709,27.8719815 14.8996804,27.8719815 C15.3151654,27.8719815 15.6618417,27.7361519 15.9397195,27.4644886 C16.2175973,27.1928253 16.3565341,26.854583 16.3565341,26.4497514 C16.3565341,26.0555733 16.2175973,25.7239893 15.9397195,25.4549893 C15.6618417,25.1859894 15.3204921,25.0514915 14.9156605,25.0514915 Z M19.6138139,24.5933949 L22.721946,24.5933949 L22.721946,25.0674716 L21.4248935,25.0674716 L21.4248935,28.3194247 L20.8895597,28.3194247 L20.8895597,25.0674716 L19.6138139,25.0674716 L19.6138139,24.5933949 Z M25.9525923,24.5987216 L28.0619673,24.5987216 L28.0619673,25.0727983 L26.4852628,25.0727983 L26.4852628,26.2073864 L28.0087003,26.2073864 L28.0087003,26.6841264 L26.4852628,26.6841264 L26.4852628,27.8400213 L28.112571,27.8400213 L28.112571,28.314098 L25.9525923,28.314098 L25.9525923,24.5987216 Z M31.4071378,24.5987216 L31.9398082,24.5987216 L31.9398082,27.8346946 L33.6150568,27.8346946 L33.6150568,28.3194247 L31.4071378,28.3194247 L31.4071378,24.5987216 Z" id="HOTEL" fill="#484442" fill-rule="nonzero"></path>
                    <polygon id="Path-55" stroke="#484442" stroke-width="0.9" points="3.63636364 22.169588 3.63636364 6.05885349 14.5214844 0 25.8726918 6.05885349 25.8726918 22.2753906"></polygon>
                </g>
                <g id="Group-4" transform="translate(4.000000, 22.000000)">
                    <path d="M60.8945817,24.4280094 L40.1493437,24.4280094 C39.4960373,25.9425771 38.0127093,27 36.2874297,27 C34.56215,27 33.078822,25.9425771 32.4255156,24.4280094 L24.2028719,24.4280094 L24.2028719,1.8 L72.9700535,1.8 L76.1331044,11.7557632 L76.1331044,24.4280094 L68.6184098,24.4280094 C67.9651034,25.9425771 66.4817754,27 64.7564958,27 C63.0312161,27 61.5478881,25.9425771 60.8945817,24.4280094 Z" id="Combined-Shape" fill-opacity="0.3" fill="#9E9EFC"></path>
                    <g id="Group" transform="translate(22.412174, 0.000000)" stroke="#484442" stroke-width="1.08">
                        <path d="M36.6917098,22.6280094 L15.9464719,22.6280094 C15.2931654,24.1425771 13.8098374,25.2 12.0845578,25.2 C10.3592782,25.2 8.87595011,24.1425771 8.22264369,22.6280094 L0,22.6280094 L0,-3.55271368e-15 L48.7671816,-1.64082308e-15 L51.9302326,9.95576317 L51.9302326,22.6280094 L44.415538,22.6280094 C43.7622315,24.1425771 42.2789035,25.2 40.5536239,25.2 C38.8283443,25.2 37.3450162,24.1425771 36.6917098,22.6280094 Z" id="Combined-Shape"></path>
                        <polyline id="Path-8" points="0 12.0521739 42.2430124 12.0521739 46.0959866 16.4347826 51.9302326 16.4347826"></polyline>
                        <path d="M0,16.9826087 L2.16375969,16.9826087" id="Path-12"></path>
                        <path d="M0,3.83478261 L49.7664729,3.83478261" id="Path-7"></path>
                        <path d="M18.3919574,16.9826087 L32.4563953,16.9826087" id="Path-10"></path>
                        <path d="M49.7664729,19.173913 L51.9302326,19.173913" id="Path-11"></path>
                        <path d="M0,19.173913 L2.16375969,19.173913" id="Path-12-Copy"></path>
                        <ellipse id="Oval-3" cx="11.9006783" cy="20.8173913" rx="2.16375969" ry="2.19130435"></ellipse>
                        <ellipse id="Oval-3-Copy-2" cx="40.0295543" cy="20.8173913" rx="2.16375969" ry="2.19130435"></ellipse>
                        <ellipse id="Oval-3" cx="11.9006783" cy="20.8173913" rx="4.32751938" ry="4.3826087"></ellipse>
                        <ellipse id="Oval-3-Copy" cx="40.0295543" cy="20.8173913" rx="4.32751938" ry="4.3826087"></ellipse>
                        <path d="M16.7691376,4.3826087 L16.7691376,12.0521739" id="Path-9-Copy-4"></path>
                        <path d="M25.4241764,4.3826087 L25.4241764,12.0521739" id="Path-9-Copy-6"></path>
                        <path d="M34.0792151,4.3826087 L34.0792151,12.0521739" id="Path-9-Copy-7"></path>
                        <path d="M41.652374,4.3826087 L41.652374,12.0521739" id="Path-9-Copy-8"></path>
                        <path d="M8.11409884,4.3826087 L8.11409884,12.0521739" id="Path-9-Copy-5"></path>
                    </g>
                    <path d="M0.047371743,11.873477 C4.52411593,11.6332426 9.00086012,11.3930083 13.4776043,11.1527739" id="Path-34" stroke="#979797" stroke-width="1.08" transform="translate(6.762488, 11.513125) rotate(3.000000) translate(-6.762488, -11.513125) "></path>
                    <path d="M4.53441957,15.9799968 C9.01116376,15.8710124 13.487908,15.7620281 17.9646522,15.6530437" id="Path-35" stroke="#979797" stroke-width="1.08" transform="translate(11.249536, 15.816520) rotate(3.000000) translate(-11.249536, -15.816520) "></path>
                    <path d="M0.947105981,20.7058839 C5.12540056,20.5136964 9.30369513,20.3215089 13.4819897,20.1293214" id="Path-36" stroke="#979797" stroke-width="1.08" transform="translate(7.214548, 20.417603) rotate(3.000000) translate(-7.214548, -20.417603) "></path>
                </g>
            </g>
        </g>
    </g>
</svg>